<?xml version="1.0" encoding="UTF-8"?>
<svg width="283px" height="148px" viewBox="0 0 283 148" version="1.1" xmlns="http://www.w3.org/2000/svg" xmlns:xlink="http://www.w3.org/1999/xlink">
    <!-- Generator: Sketch 49 (51002) - http://www.bohemiancoding.com/sketch -->
    <title>Group 2</title>
    <desc>Created with Sketch.</desc>
    <defs></defs>
    <g id="show" stroke="none" stroke-width="1" fill="none" fill-rule="evenodd">
        <g id="Group-2">
            <g id="slideshow" fill-rule="nonzero">
                <path d="M210.321875,0.510780488 L72.1998493,0.510780488 C66.8631062,0.510780488 62.7827389,4.59702439 62.7827389,9.94006504 L62.7827389,138.182065 C62.7827389,143.525707 66.863707,147.61135 72.1998493,147.61135 L210.321875,147.61135 C215.658618,147.61135 219.738985,143.525106 219.738985,138.182065 L219.738985,9.94006504 C219.738985,4.59702439 215.658017,0.510780488 210.321875,0.510780488 Z" id="Shape" fill="#01594B"></path>
                <g id="Group" transform="translate(0.000000, 15.642276)">
                    <path d="M40.8084798,0.584178862 C35.4717367,0.584178862 31.3913694,4.67042276 31.3913694,10.0134634 L31.3913694,106.823512 C31.3913694,112.167154 35.4723376,116.252797 40.8084798,116.252797 C46.1446221,116.252797 50.2255902,112.166553 50.2255902,106.823512 L50.2255902,10.014065 C50.2261911,4.67042276 46.1452229,0.584178862 40.8084798,0.584178862 Z" id="Shape" fill="#037A68"></path>
                    <path d="M9.4171104,16.3004553 C4.08096815,16.3004553 0,20.3866992 0,25.7297398 L0,91.1078374 C0,96.4514797 4.08096815,100.537122 9.4171104,100.537122 C14.7532527,100.537122 18.8342208,96.450878 18.8342208,91.1078374 L18.8342208,25.7297398 C18.8348217,20.3866992 14.7538535,16.3004553 9.4171104,16.3004553 Z" id="Shape" fill="#059E86"></path>
                    <path d="M241.713244,0.584178862 C236.376501,0.584178862 232.296134,4.67042276 232.296134,10.0134634 L232.296134,106.823512 C232.296134,112.167154 236.377102,116.252797 241.713244,116.252797 C247.049386,116.252797 251.130355,112.166553 251.130355,106.823512 L251.130355,10.014065 C251.130355,4.67042276 247.049386,0.584178862 241.713244,0.584178862 Z" id="Shape" fill="#037A68"></path>
                    <path d="M273.104614,16.3004553 C267.76787,16.3004553 263.687503,20.3866992 263.687503,25.7297398 L263.687503,91.1078374 C263.687503,96.4514797 267.768471,100.537122 273.104614,100.537122 C278.440756,100.537122 282.521724,96.450878 282.521724,91.1078374 L282.521724,25.7297398 C282.521724,20.3866992 278.440756,16.3004553 273.104614,16.3004553 Z" id="Shape" fill="#059E86"></path>
                </g>
            </g>
            <text id="D" font-family="NordicAlternative, Nordic Alternative" font-size="144" font-weight="800" letter-spacing="3.50999975" fill="#FFFFFF">
                <tspan x="103" y="125">D</tspan>
            </text>
        </g>
    </g>
</svg>